<?xml version="1.0" encoding="UTF-8" standalone="no"?>
<!DOCTYPE svg PUBLIC "-//W3C//DTD SVG 1.1//EN"
 "http://www.w3.org/Graphics/SVG/1.1/DTD/svg11.dtd">
<!-- Generated by graphviz version 2.50.0 (0)
 -->
<!-- Title: G Pages: 1 -->
<svg width="808pt" height="3256pt"
 viewBox="0.00 0.00 291.00 1172.00" xmlns="http://www.w3.org/2000/svg" xmlns:xlink="http://www.w3.org/1999/xlink">
<g id="graph0" class="graph" transform="scale(2.78 2.78) rotate(0) translate(4 1168)">
<title>G</title>
<polygon fill="white" stroke="transparent" points="-4,4 -4,-1168 287,-1168 287,4 -4,4"/>
<!-- 1361994267280 -->
<g id="node1" class="node">
<title>1361994267280</title>
<polygon fill="none" stroke="black" points="20.5,-1080.5 20.5,-1163.5 262.5,-1163.5 262.5,-1080.5 20.5,-1080.5"/>
<polygon fill="black" stroke="transparent" points="20.5,-1080.5 20.5,-1163.5 262.5,-1163.5 262.5,-1080.5 20.5,-1080.5"/>
<polygon fill="black" stroke="transparent" points="22.5,-1121 22.5,-1161 260.5,-1161 260.5,-1121 22.5,-1121"/>
<polygon fill="none" stroke="black" points="22.5,-1121 22.5,-1161 260.5,-1161 260.5,-1121 22.5,-1121"/>
<text text-anchor="start" x="67.5" y="-1138.2" font-family="Helvetica,sans-Serif" font-weight="bold" font-size="16.00" fill="white">conv2d_6</text>
<text text-anchor="start" x="142.5" y="-1138.2" font-family="Helvetica,sans-Serif" font-size="16.00" fill="white"> (Conv2D)</text>
<polygon fill="white" stroke="transparent" points="22.5,-1082 22.5,-1119 260.5,-1119 260.5,-1082 22.5,-1082"/>
<polygon fill="none" stroke="black" points="22.5,-1082 22.5,-1119 260.5,-1119 260.5,-1082 22.5,-1082"/>
<text text-anchor="start" x="33.5" y="-1097.8" font-family="Helvetica,sans-Serif" font-size="14.00">Output shape: </text>
<text text-anchor="start" x="123.5" y="-1097.8" font-family="Helvetica,sans-Serif" font-weight="bold" font-size="14.00">(None, 126, 126, 32)</text>
</g>
<!-- 1361997594512 -->
<g id="node2" class="node">
<title>1361997594512</title>
<polygon fill="none" stroke="black" points="0,-960.5 0,-1043.5 283,-1043.5 283,-960.5 0,-960.5"/>
<polygon fill="black" stroke="transparent" points="0,-960.5 0,-1043.5 283,-1043.5 283,-960.5 0,-960.5"/>
<polygon fill="black" stroke="transparent" points="2.5,-1001 2.5,-1041 281.5,-1041 281.5,-1001 2.5,-1001"/>
<polygon fill="none" stroke="black" points="2.5,-1001 2.5,-1041 281.5,-1041 281.5,-1001 2.5,-1001"/>
<text text-anchor="start" x="13.5" y="-1018.2" font-family="Helvetica,sans-Serif" font-weight="bold" font-size="16.00" fill="white">max_pooling2d_6</text>
<text text-anchor="start" x="149.5" y="-1018.2" font-family="Helvetica,sans-Serif" font-size="16.00" fill="white"> (MaxPooling2D)</text>
<polygon fill="white" stroke="transparent" points="2.5,-962 2.5,-999 281.5,-999 281.5,-962 2.5,-962"/>
<polygon fill="none" stroke="black" points="2.5,-962 2.5,-999 281.5,-999 281.5,-962 2.5,-962"/>
<text text-anchor="start" x="41.5" y="-977.8" font-family="Helvetica,sans-Serif" font-size="14.00">Output shape: </text>
<text text-anchor="start" x="131.5" y="-977.8" font-family="Helvetica,sans-Serif" font-weight="bold" font-size="14.00">(None, 63, 63, 32)</text>
</g>
<!-- 1361994267280&#45;&gt;1361997594512 -->
<g id="edge1" class="edge">
<title>1361994267280&#45;&gt;1361997594512</title>
<path fill="none" stroke="black" stroke-width="2" d="M141.5,-1080.37C141.5,-1080.37 141.5,-1053.56 141.5,-1053.56"/>
<polygon fill="black" stroke="black" stroke-width="2" points="145,-1053.56 141.5,-1043.56 138,-1053.56 145,-1053.56"/>
</g>
<!-- 1361994199568 -->
<g id="node3" class="node">
<title>1361994199568</title>
<polygon fill="none" stroke="black" points="28,-840.5 28,-923.5 255,-923.5 255,-840.5 28,-840.5"/>
<polygon fill="black" stroke="transparent" points="28,-840.5 28,-923.5 255,-923.5 255,-840.5 28,-840.5"/>
<polygon fill="black" stroke="transparent" points="30.5,-881 30.5,-921 253.5,-921 253.5,-881 30.5,-881"/>
<polygon fill="none" stroke="black" points="30.5,-881 30.5,-921 253.5,-921 253.5,-881 30.5,-881"/>
<text text-anchor="start" x="68" y="-898.2" font-family="Helvetica,sans-Serif" font-weight="bold" font-size="16.00" fill="white">conv2d_7</text>
<text text-anchor="start" x="143" y="-898.2" font-family="Helvetica,sans-Serif" font-size="16.00" fill="white"> (Conv2D)</text>
<polygon fill="white" stroke="transparent" points="30.5,-842 30.5,-879 253.5,-879 253.5,-842 30.5,-842"/>
<polygon fill="none" stroke="black" points="30.5,-842 30.5,-879 253.5,-879 253.5,-842 30.5,-842"/>
<text text-anchor="start" x="41.5" y="-857.8" font-family="Helvetica,sans-Serif" font-size="14.00">Output shape: </text>
<text text-anchor="start" x="131.5" y="-857.8" font-family="Helvetica,sans-Serif" font-weight="bold" font-size="14.00">(None, 61, 61, 64)</text>
</g>
<!-- 1361997594512&#45;&gt;1361994199568 -->
<g id="edge2" class="edge">
<title>1361997594512&#45;&gt;1361994199568</title>
<path fill="none" stroke="black" stroke-width="2" d="M141.5,-960.37C141.5,-960.37 141.5,-933.56 141.5,-933.56"/>
<polygon fill="black" stroke="black" stroke-width="2" points="145,-933.56 141.5,-923.56 138,-933.56 145,-933.56"/>
</g>
<!-- 1361994359632 -->
<g id="node4" class="node">
<title>1361994359632</title>
<polygon fill="none" stroke="black" points="0,-720.5 0,-803.5 283,-803.5 283,-720.5 0,-720.5"/>
<polygon fill="black" stroke="transparent" points="0,-720.5 0,-803.5 283,-803.5 283,-720.5 0,-720.5"/>
<polygon fill="black" stroke="transparent" points="2.5,-761 2.5,-801 281.5,-801 281.5,-761 2.5,-761"/>
<polygon fill="none" stroke="black" points="2.5,-761 2.5,-801 281.5,-801 281.5,-761 2.5,-761"/>
<text text-anchor="start" x="13.5" y="-778.2" font-family="Helvetica,sans-Serif" font-weight="bold" font-size="16.00" fill="white">max_pooling2d_7</text>
<text text-anchor="start" x="149.5" y="-778.2" font-family="Helvetica,sans-Serif" font-size="16.00" fill="white"> (MaxPooling2D)</text>
<polygon fill="white" stroke="transparent" points="2.5,-722 2.5,-759 281.5,-759 281.5,-722 2.5,-722"/>
<polygon fill="none" stroke="black" points="2.5,-722 2.5,-759 281.5,-759 281.5,-722 2.5,-722"/>
<text text-anchor="start" x="41.5" y="-737.8" font-family="Helvetica,sans-Serif" font-size="14.00">Output shape: </text>
<text text-anchor="start" x="131.5" y="-737.8" font-family="Helvetica,sans-Serif" font-weight="bold" font-size="14.00">(None, 30, 30, 64)</text>
</g>
<!-- 1361994199568&#45;&gt;1361994359632 -->
<g id="edge3" class="edge">
<title>1361994199568&#45;&gt;1361994359632</title>
<path fill="none" stroke="black" stroke-width="2" d="M141.5,-840.37C141.5,-840.37 141.5,-813.56 141.5,-813.56"/>
<polygon fill="black" stroke="black" stroke-width="2" points="145,-813.56 141.5,-803.56 138,-813.56 145,-813.56"/>
</g>
<!-- 1361994468368 -->
<g id="node5" class="node">
<title>1361994468368</title>
<polygon fill="none" stroke="black" points="24.5,-600.5 24.5,-683.5 258.5,-683.5 258.5,-600.5 24.5,-600.5"/>
<polygon fill="black" stroke="transparent" points="24.5,-600.5 24.5,-683.5 258.5,-683.5 258.5,-600.5 24.5,-600.5"/>
<polygon fill="black" stroke="transparent" points="26.5,-641 26.5,-681 256.5,-681 256.5,-641 26.5,-641"/>
<polygon fill="none" stroke="black" points="26.5,-641 26.5,-681 256.5,-681 256.5,-641 26.5,-641"/>
<text text-anchor="start" x="67.5" y="-658.2" font-family="Helvetica,sans-Serif" font-weight="bold" font-size="16.00" fill="white">conv2d_8</text>
<text text-anchor="start" x="142.5" y="-658.2" font-family="Helvetica,sans-Serif" font-size="16.00" fill="white"> (Conv2D)</text>
<polygon fill="white" stroke="transparent" points="26.5,-602 26.5,-639 256.5,-639 256.5,-602 26.5,-602"/>
<polygon fill="none" stroke="black" points="26.5,-602 26.5,-639 256.5,-639 256.5,-602 26.5,-602"/>
<text text-anchor="start" x="37.5" y="-617.8" font-family="Helvetica,sans-Serif" font-size="14.00">Output shape: </text>
<text text-anchor="start" x="127.5" y="-617.8" font-family="Helvetica,sans-Serif" font-weight="bold" font-size="14.00">(None, 28, 28, 128)</text>
</g>
<!-- 1361994359632&#45;&gt;1361994468368 -->
<g id="edge4" class="edge">
<title>1361994359632&#45;&gt;1361994468368</title>
<path fill="none" stroke="black" stroke-width="2" d="M141.5,-720.37C141.5,-720.37 141.5,-693.56 141.5,-693.56"/>
<polygon fill="black" stroke="black" stroke-width="2" points="145,-693.56 141.5,-683.56 138,-693.56 145,-693.56"/>
</g>
<!-- 1361994471440 -->
<g id="node6" class="node">
<title>1361994471440</title>
<polygon fill="none" stroke="black" points="0,-480.5 0,-563.5 283,-563.5 283,-480.5 0,-480.5"/>
<polygon fill="black" stroke="transparent" points="0,-480.5 0,-563.5 283,-563.5 283,-480.5 0,-480.5"/>
<polygon fill="black" stroke="transparent" points="2.5,-521 2.5,-561 281.5,-561 281.5,-521 2.5,-521"/>
<polygon fill="none" stroke="black" points="2.5,-521 2.5,-561 281.5,-561 281.5,-521 2.5,-521"/>
<text text-anchor="start" x="13.5" y="-538.2" font-family="Helvetica,sans-Serif" font-weight="bold" font-size="16.00" fill="white">max_pooling2d_8</text>
<text text-anchor="start" x="149.5" y="-538.2" font-family="Helvetica,sans-Serif" font-size="16.00" fill="white"> (MaxPooling2D)</text>
<polygon fill="white" stroke="transparent" points="2.5,-482 2.5,-519 281.5,-519 281.5,-482 2.5,-482"/>
<polygon fill="none" stroke="black" points="2.5,-482 2.5,-519 281.5,-519 281.5,-482 2.5,-482"/>
<text text-anchor="start" x="38" y="-497.8" font-family="Helvetica,sans-Serif" font-size="14.00">Output shape: </text>
<text text-anchor="start" x="128" y="-497.8" font-family="Helvetica,sans-Serif" font-weight="bold" font-size="14.00">(None, 14, 14, 128)</text>
</g>
<!-- 1361994468368&#45;&gt;1361994471440 -->
<g id="edge5" class="edge">
<title>1361994468368&#45;&gt;1361994471440</title>
<path fill="none" stroke="black" stroke-width="2" d="M141.5,-600.37C141.5,-600.37 141.5,-573.56 141.5,-573.56"/>
<polygon fill="black" stroke="black" stroke-width="2" points="145,-573.56 141.5,-563.56 138,-573.56 145,-573.56"/>
</g>
<!-- 1361994466576 -->
<g id="node7" class="node">
<title>1361994466576</title>
<polygon fill="none" stroke="black" points="39.5,-360.5 39.5,-443.5 243.5,-443.5 243.5,-360.5 39.5,-360.5"/>
<polygon fill="black" stroke="transparent" points="39.5,-360.5 39.5,-443.5 243.5,-443.5 243.5,-360.5 39.5,-360.5"/>
<polygon fill="black" stroke="transparent" points="41.5,-401 41.5,-441 241.5,-441 241.5,-401 41.5,-401"/>
<polygon fill="none" stroke="black" points="41.5,-401 41.5,-441 241.5,-441 241.5,-401 41.5,-401"/>
<text text-anchor="start" x="75.5" y="-418.2" font-family="Helvetica,sans-Serif" font-weight="bold" font-size="16.00" fill="white">flatten_2</text>
<text text-anchor="start" x="142.5" y="-418.2" font-family="Helvetica,sans-Serif" font-size="16.00" fill="white"> (Flatten)</text>
<polygon fill="white" stroke="transparent" points="41.5,-362 41.5,-399 241.5,-399 241.5,-362 41.5,-362"/>
<polygon fill="none" stroke="black" points="41.5,-362 41.5,-399 241.5,-399 241.5,-362 41.5,-362"/>
<text text-anchor="start" x="52.5" y="-377.8" font-family="Helvetica,sans-Serif" font-size="14.00">Output shape: </text>
<text text-anchor="start" x="142.5" y="-377.8" font-family="Helvetica,sans-Serif" font-weight="bold" font-size="14.00">(None, 25088)</text>
</g>
<!-- 1361994471440&#45;&gt;1361994466576 -->
<g id="edge6" class="edge">
<title>1361994471440&#45;&gt;1361994466576</title>
<path fill="none" stroke="black" stroke-width="2" d="M141.5,-480.37C141.5,-480.37 141.5,-453.56 141.5,-453.56"/>
<polygon fill="black" stroke="black" stroke-width="2" points="145,-453.56 141.5,-443.56 138,-453.56 145,-453.56"/>
</g>
<!-- 1361992529552 -->
<g id="node8" class="node">
<title>1361992529552</title>
<polygon fill="none" stroke="black" points="47,-240.5 47,-323.5 236,-323.5 236,-240.5 47,-240.5"/>
<polygon fill="black" stroke="transparent" points="47,-240.5 47,-323.5 236,-323.5 236,-240.5 47,-240.5"/>
<polygon fill="black" stroke="transparent" points="49.5,-281 49.5,-321 234.5,-321 234.5,-281 49.5,-281"/>
<polygon fill="none" stroke="black" points="49.5,-281 49.5,-321 234.5,-321 234.5,-281 49.5,-281"/>
<text text-anchor="start" x="78.5" y="-298.2" font-family="Helvetica,sans-Serif" font-weight="bold" font-size="16.00" fill="white">dense_4</text>
<text text-anchor="start" x="143.5" y="-298.2" font-family="Helvetica,sans-Serif" font-size="16.00" fill="white"> (Dense)</text>
<polygon fill="white" stroke="transparent" points="49.5,-242 49.5,-279 234.5,-279 234.5,-242 49.5,-242"/>
<polygon fill="none" stroke="black" points="49.5,-242 49.5,-279 234.5,-279 234.5,-242 49.5,-242"/>
<text text-anchor="start" x="60.5" y="-257.8" font-family="Helvetica,sans-Serif" font-size="14.00">Output shape: </text>
<text text-anchor="start" x="150.5" y="-257.8" font-family="Helvetica,sans-Serif" font-weight="bold" font-size="14.00">(None, 128)</text>
</g>
<!-- 1361994466576&#45;&gt;1361992529552 -->
<g id="edge7" class="edge">
<title>1361994466576&#45;&gt;1361992529552</title>
<path fill="none" stroke="black" stroke-width="2" d="M141.5,-360.37C141.5,-360.37 141.5,-333.56 141.5,-333.56"/>
<polygon fill="black" stroke="black" stroke-width="2" points="145,-333.56 141.5,-323.56 138,-333.56 145,-333.56"/>
</g>
<!-- 1361960711632 -->
<g id="node9" class="node">
<title>1361960711632</title>
<polygon fill="none" stroke="black" points="47,-120.5 47,-203.5 236,-203.5 236,-120.5 47,-120.5"/>
<polygon fill="black" stroke="transparent" points="47,-120.5 47,-203.5 236,-203.5 236,-120.5 47,-120.5"/>
<polygon fill="black" stroke="transparent" points="49.5,-161 49.5,-201 234.5,-201 234.5,-161 49.5,-161"/>
<polygon fill="none" stroke="black" points="49.5,-161 49.5,-201 234.5,-201 234.5,-161 49.5,-161"/>
<text text-anchor="start" x="66" y="-178.2" font-family="Helvetica,sans-Serif" font-weight="bold" font-size="16.00" fill="white">dropout_5</text>
<text text-anchor="start" x="145" y="-178.2" font-family="Helvetica,sans-Serif" font-size="16.00" fill="white"> (Dropout)</text>
<polygon fill="white" stroke="transparent" points="49.5,-122 49.5,-159 234.5,-159 234.5,-122 49.5,-122"/>
<polygon fill="none" stroke="black" points="49.5,-122 49.5,-159 234.5,-159 234.5,-122 49.5,-122"/>
<text text-anchor="start" x="60.5" y="-137.8" font-family="Helvetica,sans-Serif" font-size="14.00">Output shape: </text>
<text text-anchor="start" x="150.5" y="-137.8" font-family="Helvetica,sans-Serif" font-weight="bold" font-size="14.00">(None, 128)</text>
</g>
<!-- 1361992529552&#45;&gt;1361960711632 -->
<g id="edge8" class="edge">
<title>1361992529552&#45;&gt;1361960711632</title>
<path fill="none" stroke="black" stroke-width="2" d="M141.5,-240.37C141.5,-240.37 141.5,-213.56 141.5,-213.56"/>
<polygon fill="black" stroke="black" stroke-width="2" points="145,-213.56 141.5,-203.56 138,-213.56 145,-213.56"/>
</g>
<!-- 1361997743824 -->
<g id="node10" class="node">
<title>1361997743824</title>
<polygon fill="none" stroke="black" points="54.5,-0.5 54.5,-83.5 228.5,-83.5 228.5,-0.5 54.5,-0.5"/>
<polygon fill="black" stroke="transparent" points="54.5,-0.5 54.5,-83.5 228.5,-83.5 228.5,-0.5 54.5,-0.5"/>
<polygon fill="black" stroke="transparent" points="56.5,-41 56.5,-81 226.5,-81 226.5,-41 56.5,-41"/>
<polygon fill="none" stroke="black" points="56.5,-41 56.5,-81 226.5,-81 226.5,-41 56.5,-41"/>
<text text-anchor="start" x="78" y="-58.2" font-family="Helvetica,sans-Serif" font-weight="bold" font-size="16.00" fill="white">dense_5</text>
<text text-anchor="start" x="143" y="-58.2" font-family="Helvetica,sans-Serif" font-size="16.00" fill="white"> (Dense)</text>
<polygon fill="white" stroke="transparent" points="56.5,-2 56.5,-39 226.5,-39 226.5,-2 56.5,-2"/>
<polygon fill="none" stroke="black" points="56.5,-2 56.5,-39 226.5,-39 226.5,-2 56.5,-2"/>
<text text-anchor="start" x="67.5" y="-17.8" font-family="Helvetica,sans-Serif" font-size="14.00">Output shape: </text>
<text text-anchor="start" x="157.5" y="-17.8" font-family="Helvetica,sans-Serif" font-weight="bold" font-size="14.00">(None, 1)</text>
</g>
<!-- 1361960711632&#45;&gt;1361997743824 -->
<g id="edge9" class="edge">
<title>1361960711632&#45;&gt;1361997743824</title>
<path fill="none" stroke="black" stroke-width="2" d="M141.5,-120.37C141.5,-120.37 141.5,-93.56 141.5,-93.56"/>
<polygon fill="black" stroke="black" stroke-width="2" points="145,-93.56 141.5,-83.56 138,-93.56 145,-93.56"/>
</g>
</g>
</svg>
